<mxfile host="app.diagrams.net" modified="2024-06-04T10:48:24.802Z" agent="Mozilla/5.0 (Windows NT 10.0; Win64; x64) AppleWebKit/537.36 (KHTML, like Gecko) Chrome/125.0.0.0 Safari/537.36" version="24.4.13" etag="71mAOKMzZb9dgIYFT6KU" type="github">
  <diagram name="Seite-1" id="O6_ijz0x88URvbkc5MyA">
    <mxGraphModel>
      <root>
        <mxCell id="0" />
        <mxCell id="1" parent="0" />
      </root>
    </mxGraphModel>
  </diagram>
</mxfile>
